<svg width="40" height="40" viewBox="0 0 40 40" fill="none" xmlns="http://www.w3.org/2000/svg">
<rect x="0.898148" y="0.0878792" width="39" height="39" fill="white"/>
<path d="M11.5549 18.1053C12.6749 17.9453 13.7069 17.8653 14.6509 17.8653L14.4109 12.2733C14.0269 12.9613 13.4829 14.0653 12.7789 15.5853C12.1709 16.8813 11.7629 17.7213 11.5549 18.1053ZM18.7309 26.6973C18.7949 26.9373 18.7309 27.1693 18.5389 27.3933C18.3469 27.6013 18.0829 27.7693 17.7469 27.8973C17.4269 28.0413 17.1229 28.1133 16.8349 28.1133C16.3709 28.1133 16.1069 27.9693 16.0429 27.6813C15.4669 25.3933 15.0429 22.6733 14.7709 19.5213C13.3309 19.5053 11.8989 19.6413 10.4749 19.9293C8.9709 22.4413 7.5709 24.7533 6.2749 26.8653C6.1469 27.0893 5.8829 27.2813 5.4829 27.4413C5.0669 27.5853 4.6829 27.6573 4.3309 27.6573C3.8829 27.6573 3.6589 27.5373 3.6589 27.2973C3.6589 27.2013 3.6909 27.0973 3.7549 26.9853C5.0349 24.7453 6.2189 22.6973 7.3069 20.8413L6.8989 20.9853C6.6429 21.0813 6.4109 21.1293 6.2029 21.1293C5.9949 21.1293 5.8349 21.0813 5.7229 20.9853C5.5949 20.8893 5.5309 20.7693 5.5309 20.6253C5.5309 20.4653 5.6109 20.3053 5.7709 20.1453C5.9149 19.9693 6.1309 19.8173 6.4189 19.6893C7.1709 19.3533 7.8429 19.0893 8.4349 18.8973C9.2989 17.4093 10.2189 15.7213 11.1949 13.8333C12.3149 11.6733 13.2589 9.98529 14.0269 8.76929C14.0749 8.70529 14.1389 8.64129 14.2189 8.57729L14.1949 8.45729C14.1949 8.16929 14.3949 7.91329 14.7949 7.68929C15.2109 7.44929 15.6269 7.32929 16.0429 7.32929C16.5549 7.32929 16.8189 7.52129 16.8349 7.90529L16.9069 9.51329C17.0509 13.3693 17.2349 16.6173 17.4589 19.2573C17.6989 21.8813 18.1229 24.3613 18.7309 26.6973Z" fill="#770E66"/>
<path d="M35.0653 17.1725C34.8893 19.2365 33.5533 20.8205 31.0573 21.9245C32.0493 22.4525 32.6653 23.3325 32.9053 24.5645C33.0013 25.0605 33.0493 25.7005 33.0493 26.4845C33.0493 26.9485 33.0333 27.6445 33.0013 28.5725L32.9773 29.4845C32.9773 30.5725 33.2013 31.1725 33.6493 31.2845C34.0173 31.3645 34.2013 31.5165 34.2013 31.7405C34.2013 31.9965 33.9853 32.2605 33.5533 32.5325C33.1213 32.8045 32.7213 32.9405 32.3533 32.9405C32.2733 32.9405 32.2093 32.9325 32.1613 32.9165C31.4413 32.7565 30.9533 32.3965 30.6973 31.8365C30.4413 31.2765 30.3133 30.5645 30.3133 29.7005C30.3133 29.3965 30.3293 28.9725 30.3613 28.4285C30.3933 27.9165 30.4093 27.5645 30.4093 27.3725C30.4253 26.5885 30.3773 25.9085 30.2653 25.3325C30.1693 24.7405 29.9373 24.2365 29.5693 23.8205C29.1053 23.3085 28.4413 23.0285 27.5773 22.9805C27.4333 23.0125 27.1613 23.0685 26.7613 23.1485L25.2973 30.8525C25.2333 31.1565 24.9853 31.4205 24.5533 31.6445C24.1373 31.8525 23.7213 31.9565 23.3053 31.9565C23.0813 31.9565 22.9053 31.9085 22.7773 31.8125C22.6493 31.7165 22.6013 31.5805 22.6333 31.4045C23.2413 28.2365 23.7533 25.6045 24.1693 23.5085C23.7053 23.5245 23.4733 23.3885 23.4733 23.1005C23.4733 22.9245 23.5693 22.7165 23.7613 22.4765C23.9693 22.2205 24.2013 22.0365 24.4573 21.9245L25.6333 15.6845C25.6973 15.4285 25.7773 15.0285 25.8733 14.4845C25.6653 14.5485 25.4653 14.5805 25.2733 14.5805C25.0493 14.5805 24.8733 14.5325 24.7453 14.4365C24.6173 14.3405 24.5533 14.2205 24.5533 14.0765C24.5533 13.9165 24.6333 13.7485 24.7933 13.5725C24.9693 13.3965 25.2093 13.2445 25.5133 13.1165C26.1373 12.8285 26.8813 12.6365 27.7453 12.5405C28.5613 12.4445 29.2973 12.3965 29.9533 12.3965C31.7133 12.3965 33.0093 12.7325 33.8413 13.4045C34.6733 14.0765 35.0893 15.1005 35.0893 16.4765C35.0893 16.7805 35.0813 17.0125 35.0653 17.1725ZM32.4253 18.1805C32.5213 17.8445 32.5693 17.5405 32.5693 17.2685C32.5693 16.3565 32.1613 15.6365 31.3453 15.1085C30.5293 14.5805 29.5613 14.2765 28.4413 14.1965L27.0733 21.4205C27.1853 21.4205 27.3533 21.4045 27.5773 21.3725C28.8413 21.1485 29.8973 20.7965 30.7453 20.3165C31.5933 19.8365 32.1533 19.1245 32.4253 18.1805Z" fill="#140A50"/>
<line x1="20.8787" y1="5.08801" x2="20.8787" y2="34.0495" stroke="url(#paint0_linear)"/>
<line x1="20.3787" y1="33.5495" x2="35.0349" y2="33.5495" stroke="#770E66"/>
<line x1="7.00867" y1="5.60614" x2="21.3702" y2="5.59716" stroke="#140A50"/>
<defs>
<linearGradient id="paint0_linear" x1="19.9934" y1="5.49757" x2="19.9592" y2="32.7428" gradientUnits="userSpaceOnUse">
<stop stop-color="#140A50"/>
<stop offset="1" stop-color="#770E66" stop-opacity="0.87"/>
</linearGradient>
</defs>
</svg>
