<svg width="54" height="40" viewBox="0 0 54 40" fill="none" xmlns="http://www.w3.org/2000/svg">
<rect x="0.0812531" y="0.0878792" width="53" height="39" fill="white"/>
<path d="M17.6415 18.1053C18.7615 17.9453 19.7935 17.8653 20.7375 17.8653L20.4975 12.2733C20.1135 12.9613 19.5695 14.0653 18.8655 15.5853C18.2575 16.8813 17.8495 17.7213 17.6415 18.1053ZM24.8175 26.6973C24.8815 26.9373 24.8175 27.1693 24.6255 27.3933C24.4335 27.6013 24.1695 27.7693 23.8335 27.8973C23.5135 28.0413 23.2095 28.1133 22.9215 28.1133C22.4575 28.1133 22.1935 27.9693 22.1295 27.6813C21.5535 25.3933 21.1295 22.6733 20.8575 19.5213C19.4175 19.5053 17.9855 19.6413 16.5615 19.9293C15.0575 22.4413 13.6575 24.7533 12.3615 26.8653C12.2335 27.0893 11.9695 27.2813 11.5695 27.4413C11.1535 27.5853 10.7695 27.6573 10.4175 27.6573C9.96952 27.6573 9.74552 27.5373 9.74552 27.2973C9.74552 27.2013 9.77752 27.0973 9.84152 26.9853C11.1215 24.7453 12.3055 22.6973 13.3935 20.8413L12.9855 20.9853C12.7295 21.0813 12.4975 21.1293 12.2895 21.1293C12.0815 21.1293 11.9215 21.0813 11.8095 20.9853C11.6815 20.8893 11.6175 20.7693 11.6175 20.6253C11.6175 20.4653 11.6975 20.3053 11.8575 20.1453C12.0015 19.9693 12.2175 19.8173 12.5055 19.6893C13.2575 19.3533 13.9295 19.0893 14.5215 18.8973C15.3855 17.4093 16.3055 15.7213 17.2815 13.8333C18.4015 11.6733 19.3455 9.98529 20.1135 8.76929C20.1615 8.70529 20.2255 8.64129 20.3055 8.57729L20.2815 8.45729C20.2815 8.16929 20.4815 7.91329 20.8815 7.68929C21.2975 7.44929 21.7135 7.32929 22.1295 7.32929C22.6415 7.32929 22.9055 7.52129 22.9215 7.90529L22.9935 9.51329C23.1375 13.3693 23.3215 16.6173 23.5455 19.2573C23.7855 21.8813 24.2095 24.3613 24.8175 26.6973Z" fill="#770E66"/>
<path d="M41.5842 12.4893C41.4082 14.5533 40.0722 16.1373 37.5762 17.2413C38.5682 17.7693 39.1842 18.6493 39.4242 19.8813C39.5202 20.3773 39.5682 21.0173 39.5682 21.8013C39.5682 22.2653 39.5522 22.9613 39.5202 23.8893L39.4962 24.8013C39.4962 25.8893 39.7202 26.4893 40.1682 26.6013C40.5362 26.6813 40.7202 26.8333 40.7202 27.0573C40.7202 27.3133 40.5042 27.5773 40.0722 27.8493C39.6402 28.1213 39.2402 28.2573 38.8722 28.2573C38.7922 28.2573 38.7282 28.2493 38.6802 28.2333C37.9602 28.0733 37.4722 27.7133 37.2162 27.1533C36.9602 26.5933 36.8322 25.8813 36.8322 25.0173C36.8322 24.7133 36.8482 24.2893 36.8802 23.7453C36.9122 23.2333 36.9282 22.8813 36.9282 22.6893C36.9442 21.9053 36.8962 21.2253 36.7842 20.6493C36.6882 20.0573 36.4562 19.5533 36.0882 19.1373C35.6242 18.6253 34.9602 18.3453 34.0962 18.2973C33.9522 18.3293 33.6802 18.3853 33.2802 18.4653L31.8162 26.1693C31.7522 26.4733 31.5042 26.7373 31.0722 26.9613C30.6562 27.1693 30.2402 27.2733 29.8242 27.2733C29.6002 27.2733 29.4242 27.2253 29.2962 27.1293C29.1682 27.0333 29.1202 26.8973 29.1522 26.7213C29.7602 23.5533 30.2722 20.9213 30.6882 18.8253C30.2242 18.8413 29.9922 18.7053 29.9922 18.4173C29.9922 18.2413 30.0882 18.0333 30.2802 17.7933C30.4882 17.5373 30.7202 17.3533 30.9762 17.2413L32.1522 11.0013C32.2162 10.7453 32.2962 10.3453 32.3922 9.80129C32.1842 9.86529 31.9842 9.89729 31.7922 9.89729C31.5682 9.89729 31.3922 9.84929 31.2642 9.75329C31.1362 9.65729 31.0722 9.53729 31.0722 9.39329C31.0722 9.23329 31.1522 9.06529 31.3122 8.88929C31.4882 8.71329 31.7282 8.56129 32.0322 8.43329C32.6562 8.14529 33.4002 7.95329 34.2642 7.85729C35.0802 7.76129 35.8162 7.71329 36.4722 7.71329C38.2322 7.71329 39.5282 8.04929 40.3602 8.72129C41.1922 9.39329 41.6082 10.4173 41.6082 11.7933C41.6082 12.0973 41.6002 12.3293 41.5842 12.4893ZM38.9442 13.4973C39.0402 13.1613 39.0882 12.8573 39.0882 12.5853C39.0882 11.6733 38.6802 10.9533 37.8642 10.4253C37.0482 9.89729 36.0802 9.59329 34.9602 9.51329L33.5922 16.7373C33.7042 16.7373 33.8722 16.7213 34.0962 16.6893C35.3602 16.4653 36.4162 16.1133 37.2642 15.6333C38.1122 15.1533 38.6722 14.4413 38.9442 13.4973Z" fill="#140A50"/>
<line x1="26.9653" y1="5.08578" x2="27.0765" y2="30.0655" stroke="url(#paint0_linear)"/>
<line x1="26.5812" y1="29.5677" x2="41.0166" y2="29.5677" stroke="#770E66"/>
<line x1="13.0953" y1="5.60614" x2="27.4568" y2="5.59716" stroke="#140A50"/>
<defs>
<linearGradient id="paint0_linear" x1="26.0816" y1="5.44297" x2="26.1608" y2="28.9425" gradientUnits="userSpaceOnUse">
<stop stop-color="#140A50"/>
<stop offset="1" stop-color="#770E66" stop-opacity="0.87"/>
</linearGradient>
</defs>
</svg>
