<svg width="724" height="585" viewBox="0 0 724 585" fill="none" xmlns="http://www.w3.org/2000/svg">
<path fill-rule="evenodd" clip-rule="evenodd" d="M579.895 337.421H615.903V426.4C615.903 441.934 594.298 453.432 588.897 453.432H423.483V481.589C431.77 481.644 477.073 481.589 483.122 481.589C493.533 481.589 496.625 489.136 496.625 497.358C496.625 505.918 494.282 512 483.122 512H215.309C204.162 512 205.181 502.279 205.181 496.232C205.181 491.647 203.462 481.589 216.434 481.589H278.323V453.432H112.909C99.943 453.432 85.903 439.514 85.903 426.4V140.316C85.903 126.593 102.85 113.284 112.909 113.284H323.334C323.334 106.161 338.677 84 363.844 84C383.243 84 403.35 96.7139 403.228 104.274H362.718C358.217 104.274 352.591 107.659 352.591 112.158V143.695C352.591 148.159 358.203 153.832 362.718 153.832H403.228C401.685 163.474 381.687 175.232 363.844 175.232C347.231 175.232 323.623 163.044 322.427 145.91H121.912C121.912 150.58 122.003 415.913 121.912 420.768H579.895V337.421Z" fill="#FFFCFC"/>
<path d="M547.58 113.123H534.802C533.73 109.602 532.327 106.201 530.624 102.962L539.651 93.8774C541.583 91.9333 542.648 89.3435 542.648 86.5854C542.648 83.8307 541.583 81.2409 539.651 79.2968L529.993 69.5763C526.132 65.6916 519.375 65.6813 515.508 69.5763L506.48 78.6613C503.265 76.9474 499.883 75.5391 496.384 74.4572V61.6008C496.384 55.9196 491.79 51.2964 486.145 51.2964H472.493C466.848 51.2964 462.254 55.9196 462.254 61.6008V74.4606C458.756 75.5425 455.377 76.9508 452.158 78.6648L443.127 69.5798C439.134 65.5611 432.635 65.5611 428.642 69.5798L418.98 79.3002C414.99 83.3189 414.99 89.8587 418.98 93.8774L428.007 102.966C426.304 106.201 424.905 109.605 423.83 113.126H411.058C405.413 113.126 400.819 117.749 400.819 123.43V137.169C400.819 142.847 405.413 147.47 411.058 147.47H423.837C424.912 150.991 426.311 154.391 428.014 157.63L418.987 166.719C414.993 170.738 414.993 177.277 418.987 181.296L428.646 191.02C432.639 195.035 439.137 195.035 443.131 191.02L452.162 181.935C455.377 183.649 458.759 185.057 462.257 186.139V198.992C462.257 204.673 466.851 209.296 472.496 209.296H486.149C491.794 209.296 496.388 204.673 496.388 198.992V186.132C499.886 185.05 503.268 183.642 506.484 181.928L515.511 191.017C519.381 194.908 526.139 194.901 529.996 191.017L539.655 181.296C541.587 179.352 542.652 176.762 542.652 174.007C542.652 171.249 541.587 168.663 539.655 166.719L530.627 157.63C532.33 154.395 533.73 150.991 534.805 147.47H547.58C553.225 147.47 557.819 142.847 557.819 137.166V123.427C557.819 117.746 553.225 113.123 547.58 113.123ZM550.993 137.166C550.993 139.059 549.464 140.601 547.58 140.601H532.221C530.665 140.601 529.307 141.662 528.917 143.177C527.709 147.865 525.87 152.341 523.443 156.476C522.655 157.826 522.87 159.544 523.969 160.65L534.822 171.576C535.464 172.221 535.819 173.084 535.819 174.007C535.819 174.931 535.464 175.794 534.822 176.439L525.163 186.16C523.88 187.451 521.617 187.451 520.33 186.16L509.477 175.237C508.378 174.128 506.671 173.915 505.326 174.708C501.224 177.147 496.777 179.002 492.115 180.214C490.613 180.602 489.558 181.969 489.558 183.536V198.992C489.558 200.885 488.029 202.427 486.145 202.427H472.493C470.612 202.427 469.08 200.885 469.08 198.992V183.536C469.08 181.969 468.025 180.602 466.52 180.211C461.861 178.998 457.414 177.147 453.305 174.705C452.766 174.382 452.168 174.227 451.571 174.227C450.687 174.227 449.813 174.571 449.155 175.234L438.301 186.156C436.967 187.496 434.803 187.496 433.468 186.156L423.809 176.436C422.475 175.093 422.475 172.912 423.809 171.572L434.663 160.65C435.765 159.54 435.98 157.823 435.188 156.476C432.765 152.341 430.922 147.869 429.717 143.177C429.332 141.662 427.973 140.601 426.417 140.601H411.058C409.178 140.601 407.645 139.059 407.645 137.166V123.427C407.645 121.534 409.178 119.992 411.058 119.992H426.417C427.973 119.992 429.332 118.931 429.721 117.416C430.926 112.728 432.765 108.252 435.192 104.117C435.984 102.767 435.769 101.049 434.666 99.9432L423.813 89.0206C422.482 87.6811 422.482 85.5 423.813 84.157L433.472 74.4365C434.806 73.0935 436.97 73.097 438.305 74.4365L449.158 85.3592C450.26 86.4686 451.964 86.6884 453.305 85.8881C457.414 83.4494 461.858 81.5946 466.52 80.3822C468.025 79.9906 469.08 78.6235 469.08 77.0573V61.6008C469.08 59.7082 470.612 58.166 472.493 58.166H486.145C488.029 58.166 489.558 59.7082 489.558 61.6008V77.0573C489.558 78.6235 490.613 79.9906 492.118 80.3822C496.78 81.5946 501.227 83.4494 505.33 85.8881C506.675 86.685 508.381 86.472 509.48 85.3592L520.334 74.4365C521.62 73.1382 523.883 73.1416 525.167 74.4365L534.825 84.157C535.467 84.8027 535.822 85.6683 535.822 86.5888C535.822 87.5093 535.467 88.3749 534.825 89.0206L523.972 99.9432C522.873 101.053 522.655 102.77 523.446 104.117C525.873 108.252 527.713 112.724 528.921 117.416C529.307 118.931 530.665 119.992 532.221 119.992H547.58C549.464 119.992 550.993 121.534 550.993 123.427V137.166Z" fill="white"/>
<path d="M479.319 99.3834C462.384 99.3834 448.602 113.253 448.602 130.296C448.602 147.34 462.384 161.209 479.319 161.209C496.258 161.209 510.036 147.34 510.036 130.296C510.036 113.253 496.258 99.3834 479.319 99.3834ZM479.319 154.34C466.145 154.34 455.428 143.555 455.428 130.296C455.428 117.038 466.145 106.253 479.319 106.253C492.49 106.253 503.21 117.038 503.21 130.296C503.21 143.555 492.49 154.34 479.319 154.34Z" fill="white"/>
<path d="M652.636 258.86L642.58 255.238C642.728 252.18 642.582 249.122 642.154 246.105L651.819 241.556C653.887 240.583 655.454 238.858 656.232 236.7C657.008 234.545 656.899 232.217 655.927 230.149L651.063 219.806C649.12 215.672 643.804 213.748 639.664 215.7L629.999 220.248C627.952 217.996 625.686 215.935 623.238 214.097L626.86 204.039C628.461 199.594 626.148 194.675 621.705 193.075L610.96 189.204C606.517 187.604 601.599 189.919 599.999 194.364L596.376 204.425C593.318 204.28 590.261 204.423 587.246 204.852L582.698 195.184C580.687 190.908 575.573 189.066 571.298 191.078L560.955 195.944C556.682 197.957 554.84 203.074 556.848 207.349L561.392 217.018C559.14 219.067 557.08 221.333 555.242 223.783L545.19 220.162C540.747 218.562 535.829 220.877 534.228 225.322L530.358 236.071C528.758 240.513 531.071 245.432 535.514 247.032L545.571 250.654C545.425 253.714 545.568 256.771 545.996 259.788L536.331 264.339C532.056 266.351 530.213 271.468 532.224 275.744L537.086 286.089C539.097 290.363 544.212 292.205 548.486 290.195L558.153 285.648C560.2 287.9 562.466 289.961 564.914 291.799L561.293 301.854C559.692 306.299 562.005 311.218 566.448 312.819L577.193 316.689C581.635 318.289 586.554 315.974 588.154 311.53L591.777 301.469C594.835 301.614 597.894 301.471 600.907 301.041L605.452 310.711C607.401 314.853 612.722 316.763 616.852 314.817L627.192 309.95C629.26 308.977 630.828 307.252 631.604 305.097C632.381 302.939 632.272 300.614 631.299 298.545L626.755 288.876C629.007 286.827 631.067 284.561 632.905 282.111L642.959 285.733C647.402 287.333 652.32 285.018 653.921 280.573L657.792 269.824C659.392 265.38 657.079 260.46 652.636 258.86ZM648.549 278.638C648.015 280.119 646.377 280.892 644.895 280.358L632.807 276.004C631.582 275.563 630.214 276.008 629.481 277.083C627.209 280.409 624.501 283.389 621.426 285.936C620.425 286.769 620.11 288.173 620.663 289.35L626.127 300.975C626.45 301.662 626.487 302.437 626.226 303.16C625.966 303.883 625.444 304.457 624.757 304.78L614.416 309.647C613.043 310.294 611.262 309.652 610.613 308.277L605.148 296.655C604.596 295.475 603.313 294.825 602.031 295.065C598.115 295.81 594.092 296 590.082 295.627C588.79 295.505 587.575 296.276 587.134 297.501L582.779 309.594C582.246 311.074 580.608 311.847 579.125 311.313L568.381 307.443C566.901 306.91 566.129 305.269 566.662 303.788L571.017 291.696C571.458 290.471 571.014 289.102 569.939 288.369C566.614 286.1 563.636 283.391 561.09 280.315C560.756 279.91 560.33 279.619 559.86 279.45C559.164 279.2 558.38 279.221 557.674 279.552L546.055 285.021C544.627 285.691 542.924 285.078 542.252 283.651L537.388 273.308C536.717 271.879 537.331 270.173 538.759 269.503L550.378 264.034C551.558 263.479 552.211 262.196 551.967 260.918C551.225 256.996 551.035 252.975 551.409 248.962C551.532 247.668 550.762 246.453 549.537 246.011L537.449 241.658C535.969 241.125 535.198 239.484 535.731 238.003L539.602 227.254C540.135 225.773 541.775 225.001 543.256 225.534L555.343 229.888C556.568 230.329 557.936 229.884 558.669 228.809C560.938 225.483 563.647 222.503 566.722 219.955C567.725 219.123 568.04 217.719 567.484 216.541L562.02 204.919C561.349 203.494 561.964 201.787 563.39 201.114L573.73 196.247C575.159 195.574 576.861 196.191 577.534 197.617L582.998 209.239C583.553 210.42 584.832 211.074 586.113 210.828C590.034 210.085 594.054 209.894 598.065 210.267C599.36 210.387 600.575 209.617 601.016 208.391L605.371 196.299C605.904 194.818 607.545 194.046 609.025 194.579L619.769 198.449C621.252 198.983 622.021 200.623 621.488 202.104L617.133 214.196C616.692 215.422 617.137 216.79 618.211 217.523C621.539 219.794 624.516 222.505 627.058 225.576C627.892 226.581 629.295 226.898 630.473 226.339L642.092 220.87C643.471 220.219 645.251 220.863 645.896 222.24L650.759 232.583C651.082 233.27 651.118 234.048 650.858 234.768C650.599 235.488 650.076 236.065 649.389 236.388L637.77 241.857C636.592 242.413 635.936 243.695 636.18 244.973C636.925 248.896 637.113 252.917 636.742 256.93C636.618 258.224 637.389 259.44 638.613 259.881L650.701 264.235C652.184 264.769 652.953 266.409 652.419 267.889L648.549 278.638Z" fill="white"/>
<path d="M602.785 228.761C589.456 223.96 574.702 230.904 569.9 244.239C565.098 257.573 572.037 272.331 585.366 277.131C598.697 281.933 613.449 274.988 618.25 261.654C623.052 248.32 616.116 233.563 602.785 228.761ZM587.301 271.757C576.933 268.022 571.537 256.546 575.272 246.174C579.008 235.801 590.481 230.401 600.849 234.135C611.215 237.869 616.613 249.346 612.878 259.719C609.143 270.091 597.667 275.49 587.301 271.757Z" fill="white"/>
<path d="M518.339 288.626L510.461 284.31C510.982 281.79 511.258 279.232 511.295 276.671L519.91 274.152C521.753 273.613 523.279 272.386 524.204 270.695C525.129 269.007 525.341 267.06 524.803 265.216L522.109 255.995C521.033 252.31 516.87 250.021 513.179 251.102L504.564 253.621C503.157 251.485 501.544 249.479 499.75 247.634L504.065 239.754C505.971 236.272 504.69 231.887 501.21 229.98L492.792 225.369C489.312 223.462 484.928 224.744 483.021 228.226L478.706 236.108C476.186 235.589 473.63 235.311 471.07 235.275L468.551 226.656C467.438 222.844 463.431 220.649 459.62 221.763L450.401 224.457C446.592 225.572 444.398 229.581 445.509 233.392L448.025 242.012C445.889 243.419 443.884 245.033 442.04 246.828L434.165 242.514C430.685 240.607 426.301 241.889 424.394 245.371L419.784 253.792C417.878 257.272 419.159 261.657 422.64 263.564L430.518 267.88C430 270.401 429.721 272.958 429.685 275.519L421.069 278.04C417.258 279.154 415.063 283.163 416.177 286.975L418.869 296.197C419.983 300.007 423.99 302.202 427.8 301.09L436.416 298.572C437.823 300.709 439.436 302.714 441.23 304.559L436.917 312.437C435.01 315.919 436.291 320.304 439.772 322.211L448.189 326.823C451.67 328.73 456.053 327.448 457.96 323.966L462.276 316.084C464.796 316.602 467.354 316.881 469.911 316.917L472.427 325.537C473.507 329.229 477.676 331.508 481.358 330.429L490.575 327.734C492.419 327.195 493.944 325.967 494.869 324.279C495.794 322.589 496.006 320.644 495.467 318.8L492.951 310.18C495.087 308.772 497.092 307.158 498.936 305.363L506.813 309.679C510.293 311.585 514.677 310.304 516.584 306.821L521.194 298.4C523.101 294.918 521.82 290.533 518.339 288.626ZM512.375 304.516C511.74 305.676 510.28 306.105 509.118 305.468L499.649 300.28C498.689 299.755 497.495 299.946 496.747 300.743C494.429 303.209 491.793 305.331 488.909 307.046C487.97 307.607 487.526 308.732 487.832 309.781L490.857 320.144C491.036 320.756 490.966 321.405 490.656 321.971C490.346 322.537 489.838 322.946 489.225 323.125L480.008 325.82C478.783 326.178 477.388 325.414 477.028 324.188L474.002 313.827C473.697 312.776 472.716 312.069 471.621 312.101C468.273 312.21 464.908 311.844 461.627 311.013C460.571 310.743 459.462 311.225 458.936 312.185L453.749 321.659C453.114 322.819 451.654 323.247 450.492 322.611L442.075 318C440.915 317.364 440.488 315.902 441.123 314.742L446.31 305.268C446.836 304.308 446.644 303.114 445.848 302.365C443.382 300.049 441.262 297.412 439.548 294.527C439.324 294.147 439.007 293.85 438.639 293.648C438.094 293.35 437.44 293.265 436.811 293.449L426.454 296.478C425.182 296.848 423.848 296.117 423.474 294.845L420.781 285.625C420.409 284.351 421.141 283.014 422.413 282.644L432.771 279.615C433.823 279.308 434.532 278.328 434.495 277.235C434.389 273.882 434.753 270.518 435.585 267.235C435.856 266.177 435.374 265.067 434.415 264.541L424.945 259.354C423.786 258.718 423.358 257.255 423.994 256.095L428.604 247.674C429.239 246.514 430.702 246.087 431.861 246.722L441.331 251.91C442.29 252.436 443.484 252.244 444.232 251.447C446.548 248.98 449.185 246.859 452.069 245.144C453.01 244.584 453.454 243.458 453.145 242.408L450.119 232.047C449.748 230.777 450.48 229.44 451.751 229.066L460.968 226.371C462.242 225.999 463.575 226.732 463.948 228.003L466.974 238.364C467.282 239.417 468.258 240.127 469.353 240.089C472.705 239.983 476.068 240.347 479.349 241.178C480.408 241.447 481.517 240.965 482.043 240.005L487.23 230.532C487.865 229.372 489.328 228.944 490.487 229.579L498.904 234.191C500.066 234.827 500.491 236.289 499.856 237.449L494.669 246.922C494.143 247.882 494.335 249.076 495.131 249.825C497.599 252.143 499.719 254.782 501.43 257.662C501.991 258.605 503.115 259.051 504.166 258.74L514.523 255.711C515.752 255.35 517.146 256.117 517.503 257.344L520.196 266.564C520.375 267.177 520.303 267.827 519.994 268.391C519.686 268.956 519.176 269.366 518.564 269.545L508.207 272.574C507.157 272.883 506.446 273.862 506.482 274.954C506.59 278.309 506.224 281.671 505.394 284.955C505.124 286.014 505.605 287.123 506.565 287.649L516.034 292.837C517.196 293.473 517.621 294.935 516.986 296.095L512.375 304.516Z" fill="white"/>
<path d="M480.864 257.148C470.422 251.427 457.27 255.273 451.551 265.719C445.831 276.166 449.674 289.322 460.116 295.042C470.559 300.764 483.709 296.917 489.429 286.471C495.148 276.025 491.307 262.87 480.864 257.148ZM462.421 290.832C454.298 286.382 451.31 276.151 455.759 268.025C460.209 259.899 470.436 256.908 478.558 261.358C486.679 265.807 489.669 276.039 485.22 284.165C480.771 292.291 470.542 295.281 462.421 290.832Z" fill="white"/>
</svg>
