<svg width="496" height="504" viewBox="0 0 496 504" fill="none" xmlns="http://www.w3.org/2000/svg">
<path d="M159.337 227.154C162.762 221.78 164.105 215.339 163.112 209.044L144.541 91.4658C142.59 78.7449 131.62 69.3695 118.75 69.4237H37.1775C25.7916 69.4467 15.7186 76.8069 12.237 87.6475C-20.3401 187.123 16.2983 309.109 105.595 398.405C173.283 466.094 259.663 503.487 340.828 503.487C366.457 503.597 391.94 499.636 416.326 491.754C427.177 488.282 434.55 478.207 434.576 466.814V385.241C434.63 372.371 425.255 361.401 412.534 359.45L294.956 340.879C288.663 339.896 282.227 341.242 276.854 344.663L231.512 373.552C227.643 375.982 222.737 376.035 218.816 373.691C182.353 352.077 151.914 321.638 130.301 285.175C127.957 281.258 128.007 276.357 130.431 272.488L159.337 227.154ZM115.349 293.975C138.466 332.987 171.035 365.549 210.051 388.66C219.585 394.311 231.484 394.129 240.841 388.191L286.183 359.268C287.992 358.133 290.145 357.681 292.258 357.992L409.818 376.624C414.093 377.285 417.241 380.976 417.22 385.302V466.875C417.182 470.757 414.644 474.171 410.937 475.327C317.615 505.821 202.58 470.84 117.831 386.169C33.0815 301.499 -1.82997 186.377 28.7338 93.0538C29.8928 89.3509 33.3063 86.817 37.1862 86.7797H118.759C123.085 86.7589 126.775 89.9066 127.437 94.182L145.964 211.742C146.298 213.854 145.847 216.015 144.697 217.817L115.809 263.142C109.858 272.503 109.68 284.415 115.349 293.949V293.975Z" fill="white"/>
<path d="M226.305 234.305C226.305 253.476 241.846 269.017 261.017 269.017C280.188 269.017 295.729 253.476 295.729 234.305C295.729 215.134 280.188 199.593 261.017 199.593C241.846 199.593 226.305 215.134 226.305 234.305ZM261.017 216.949C270.602 216.949 278.373 224.72 278.373 234.305C278.373 243.89 270.602 251.661 261.017 251.661C251.432 251.661 243.661 243.89 243.661 234.305C243.661 224.72 251.432 216.949 261.017 216.949Z" fill="white"/>
<path d="M261.017 52.0678C361.616 52.1826 443.139 133.706 443.254 234.305C443.254 239.098 447.14 242.983 451.932 242.983H486.644C491.437 242.983 495.322 239.098 495.322 234.305C495.179 104.961 390.361 0.143476 261.017 0C256.224 0 252.339 3.88526 252.339 8.67797V43.3898C252.339 48.1825 256.224 52.0678 261.017 52.0678ZM269.695 17.5295C382.638 22.1884 473.134 112.684 477.793 225.627H460.437C455.805 122.264 373.058 39.5206 269.695 34.8941V17.5295Z" fill="white"/>
<path d="M252.339 138.847C252.339 143.64 256.224 147.525 261.017 147.525C308.922 147.578 347.744 186.4 347.797 234.305C347.797 239.098 351.682 242.983 356.475 242.983H391.186C395.979 242.983 399.864 239.098 399.864 234.305C399.774 157.659 337.663 95.5485 261.017 95.4576C256.224 95.4576 252.339 99.3429 252.339 104.136V138.847ZM269.695 113.117C329.918 117.513 377.809 165.404 382.205 225.627H364.797C360.487 174.996 320.326 134.835 269.695 130.525V113.117Z" fill="white"/>
</svg>
