<svg width="320" height="320" viewBox="0 0 320 320" fill="none" xmlns="http://www.w3.org/2000/svg">
<g clip-path="url(#clip0)">
<path d="M295.84 146.049L39.84 2.04901C34.88 -0.73499 28.832 -0.67099 23.936 2.17701C19.008 5.05701 16 10.305 16 16.001V304.001C16 309.697 19.008 314.945 23.936 317.825C26.432 319.265 29.216 320.001 32 320.001C34.688 320.001 37.408 319.329 39.84 317.953L295.84 173.953C300.864 171.105 304 165.793 304 160.001C304 154.209 300.864 148.897 295.84 146.049Z" fill="#F2F2F2"/>
<path d="M24.16 639.952L280.16 783.952C285.12 786.736 291.168 786.672 296.064 783.824C300.992 780.944 304 775.696 304 770V482C304 476.304 300.992 471.056 296.064 468.176C293.568 466.736 290.784 466 288 466C285.312 466 282.592 466.672 280.16 468.048L24.16 612.048C19.136 614.896 16 620.208 16 626C16 631.792 19.136 637.104 24.16 639.952Z" fill="#F2F2F2"/>
</g>
<defs>
<clipPath id="clip0">
<rect width="320.001" height="320.001" fill="white"/>
</clipPath>
</defs>
</svg>
